<svg xmlns="http://www.w3.org/2000/svg" width="2666.667" height="2666.667" version="1" viewBox="0 0 2000 2000"><path d="M981.8 28.4c-8.4 7.9-24.1 16.1-53.3 27.9-25.2 10.2-32.2 12.6-80.5 27.2-64.6 19.6-90.7 29.1-119 43.1-21.9 10.9-36.2 20.5-47.5 31.9-9.3 9.4-13.8 15.9-18.4 26.7-2.4 5.8-2.6 7.4-2.6 20.4v14.1l-4-3.2c-2.2-1.8-6.8-4.7-10.2-6.4-31.1-15.6-72.7-1.4-129.3 44.2-18.7 15-30.8 25.8-67.5 60.2-38.1 35.7-41.6 38.8-60.3 53.3-30.7 23.9-43.5 32-56.7 35.7-3.3 1-6.1 1.8-6.2 2-.2.1.5 2.6 1.4 5.6 3 9.1 2.4 33.4-1.5 61.2-3.8 26.6-6.2 38.6-18.2 90.1-17.9 76.8-23 110.9-21.7 145.6 1.2 31.9 8 51.3 22.9 65.6 6.7 6.5 12.4 10.1 20.2 13l4.9 1.8-3.4 1.2c-8.2 2.8-14.8 7.1-22 14.3-15.8 15.8-21.9 36.1-21.9 73.2 0 35.9 5.2 67.8 24.5 149.4 9 38.3 11.9 53.2 15.5 80 3.8 27.5 4.3 47.3 1.6 57.3-.9 3.4-1.4 6.7-1.1 7.1.2.5 2.2 1.2 4.2 1.6 10.5 1.9 28.3 12.8 55.2 33.8 19.8 15.4 27.2 22 61.6 54.2 33.6 31.4 45.4 42 61.1 55.1 47 39.1 80.9 56.4 110.3 56.4 15.5 0 26.3-3.5 36.7-11.8l5.2-4.1-.5 10.7c-.4 8.1-.1 12.3 1.2 17.1 6.4 24.6 28.5 45.7 68 65.1 28.4 13.9 54.9 23.5 117.7 42.5 48.2 14.6 58.2 18 80.8 27.2 33.7 13.7 45.6 20 55.7 29.6l5.4 5.1 4.2-4.1c8.5-8.1 17.4-13.5 36.4-21.9 31.3-13.8 45-18.7 98.8-35 67.3-20.5 90.3-28.8 120-43.4 39.4-19.3 60.3-38.7 67.7-62.4 2.2-7.4 2.9-20.6 1.4-28l-.7-3.9 4.1 3.5c16.5 14.2 41.3 16.8 68 7.2 17.1-6.1 41.8-20.7 64-37.8 20.2-15.6 41.1-34.1 82.5-73 25.5-24.1 35.6-33 51-45.1 30.2-23.8 47.4-34.8 59-37.6 2.8-.6 5.4-1.5 5.8-1.9.5-.4 0-3.4-1-6.6-4.6-15.1.3-64.5 11.1-112.4 2.5-10.7 7.4-32.1 11-47.5 15.7-67.9 20.4-100.4 19.3-135.4-.6-19.9-2.3-29.6-7.1-42.3-6.5-17.3-18.3-29.8-34.1-36.3l-5.5-2.2 8.8-4.3c33.5-16.6 44.3-58 34.1-131-2.9-20.6-9.4-52.5-19.8-97-4.9-21.2-10.1-44.4-11.5-51.5-7.6-39.3-10.5-78.3-6.9-92.2l1.9-7.2-5-1.1c-7.6-1.7-21.8-9.1-33.1-17.2-28-20.1-46.8-36-87-73.8-60.3-56.7-90.9-80.8-122-96-20.5-10.1-35.4-13.8-51.3-12.7-11.2.8-19.7 3.7-29.1 10.2l-7.6 5.1v-13.5c0-12.4-.3-14.1-2.7-19.9-4.5-10.7-9-17.3-18.3-26.7-11.6-11.7-25.9-21.2-49-32.5-29.1-14.3-53-22.9-117.5-42.5-48.4-14.6-55.3-17-80.4-27.1-32.8-13.3-51-23.4-57.9-32.1-1-1.3-2.1-2.3-2.5-2.3-.4.1-3.7 2.9-7.4 6.4zm68.7 120c45.6 4.9 84.9 12.8 125.4 25.1 90.4 27.6 175.9 76.9 246.1 141.7 108.1 99.8 179 233.7 200.4 378.3 5.4 36.5 6.1 47.8 6.1 95-.1 46-.8 57.9-5.5 91-33.6 234-193 431.2-414.5 512.7-52.1 19.2-108.7 31.7-167 36.8-33.2 2.9-84.3 2.3-120-1.6-212-22.8-399.2-151.1-499.1-341.9C386.6 1017 362.7 938.8 354 862c-3.4-30.7-4.3-50.6-3.7-85 .8-42.9 3.8-73.1 11.3-111.5C397.3 483.1 508.4 326.7 669.5 232c18-10.5 57.5-30.1 78-38.5 58.3-24.1 124.8-40.3 187-45.4 7.2-.6 15-1.3 17.5-1.5 12.3-1 84.4.3 98.5 1.8z"/><path d="M952.6 194.1c-6.5.4-12 1-12.3 1.3-.3.2 1.4 3.2 3.6 6.5 3.9 5.7 4.4 6.1 8.1 6.1 4.3 0 4.1-.4 5.4 11.2.5 4.2.3 4.9-2.4 7.1-3.2 2.8-11 4.3-15.9 3.2l-3.1-.6 2.1-2.8c2.8-3.8 3.5-10 1.5-13.8-3.8-7.5-15.3-14.3-24.1-14.3-3.5 0-14.3 5-16.8 7.8-1.5 1.7-1.4 2.1 2.2 6.2l3.9 4.5 2.8-2.3c4.3-3.4 12.5-7.2 15.7-7.2 3.5 0 7.7 4 7.7 7.4 0 3.1-1.8 7.8-3.3 8.8-.7.4-2.3.8-3.7.8-3.4 0-9.2 1.7-11.4 3.3-1.8 1.3-1.8 1.6.9 6.1 1.5 2.6 3.4 5 4.1 5.3 1 .4 8.5-2.6 13.5-5.4.3-.2 1.1.8 1.7 2.2 4.4 9.7-4 19.2-15.2 17.1-4.9-.9-12.3-6.2-16.4-11.7l-3.6-4.9-2.3 2.2c-2.2 2-2.2 2.2-.5 5.1 3.2 5.8 14.7 16.5 20.3 19.2 10.4 4.8 20.5 3 26.2-4.7 2.4-3.2 3.4-12.3 1.9-16.7l-1-2.9 3.6 1.5c2 .8 5.6 1.3 8.4 1.1 5.6-.3 5.2-1.1 6.5 11.1l.8 7.5 6.8 2.9c3.7 1.7 6.9 2.8 7.1 2.6.1-.2-1-13.2-2.5-28.9-1.5-15.6-2.6-28.6-2.5-28.7.2-.2 6.1-.6 13.1-1l12.8-.6-.6 3.3c-.4 1.8-.7 7-.7 11.6v8.3l-3.7.3c-3.3.3-3.8.7-4.1 3.1-.2 1.6.4 4 1.4 5.4 2.9 4.6 9.7 11.4 12.8 13 2.8 1.5 3.1 1.4 4.8-.7 1-1.2 1.8-3.5 1.8-5.1 0-2.7.3-2.9 3.9-2.9 2.1 0 6.6.3 10 .6l6.1.7v15.6l6.2 4.5c3.5 2.4 6.4 4.3 6.5 4.2.2-.2.9-13.2 1.7-29 .8-15.8 1.7-29 2-29.4.7-.7 26.8 2.2 41.1 4.6l10 1.7-.2 3.9c-.2 2.2-.4 4.1-.6 4.3-.2.2-5.1-.4-10.8-1.3-13-2.1-17-1.5-22 3.4-7 7.1-6.1 20 2.7 37.2 4.9 9.5 4.6 9.3 7.8 7.9 1.4-.7 2.5-1.5 2.3-1.8-5.4-10-6.7-14-6.7-20.6 0-8.1 1.4-10.9 6.6-13.1 2.7-1.1 4.7-1.2 10.7-.2l7.3 1.1-2.4 14.8-2.5 14.7 5.9 5.5c3.2 3 6 5.4 6.2 5.2.2-.1 2.3-12.4 4.8-27.1 5.5-33.3 5-31.3 7.1-30.8 25.4 5.5 75.3 20.3 90.5 26.8l3.6 1.6-1.8 4.7c-1 2.7-2.3 6.1-3 7.7l-1.1 2.9-2-4.1c-4.6-9.3-14.9-16.2-23.8-16.2-4.7.1-11.2 3.1-13.9 6.5-1.2 1.5-2.2 2.6-2.2 2.4 0-.2.7-2.8 1.4-5.7 1.1-4 1.2-5.4.3-5.7-8.6-2.8-22.6-5.7-26.2-5.3-8.9 1-13.5 7.2-13.5 18 0 7.6 1.8 14.5 6.7 25.1 3.2 6.7 3.9 7.6 5.7 7.1 3.5-1 3.5-1.6.9-9.4-3.3-9.8-3-19.5.6-23.4 2.9-3.1 7.8-4.2 12.3-2.8 1.8.6 5.1 1.6 7.4 2.1l4.1 1.1-.5 5.2c-.8 10 6.1 22.9 14.7 27.5 4.7 2.5 12 3.1 16.5 1.3 3.1-1.1 3.2-.4 1.1 4.6-.8 2-1.2 4.1-.8 4.8 2.5 4.2 8.5 11.6 9.2 11.2.4-.3 5.2-12.5 10.6-27.1 6.1-16.3 10.4-26.5 11.2-26.5 1.2 0 20.1 8.5 21.1 9.5.4.3-8.2 18-9.4 19.4-.2.2-1.5-.1-3-.7-6.6-3.1-8.4 4.3-4 16.4 3 8.2 5.5 11.1 8.3 9.5 1.1-.5 2.6-2.4 3.3-4l1.2-3.1 8.9 4.6c4.9 2.5 8.9 4.9 8.9 5.3 0 .4-1.5 3.5-3.4 7l-3.3 6.3 3.6 6.6c2 3.7 4 6.7 4.4 6.7.5 0 6.9-11.4 14.2-25.4 7.4-13.9 13.6-25.5 13.7-25.7.2-.1 4.5 2.3 9.6 5.4 6.1 3.8 9.1 6.1 8.7 7-.3.8-6.4 10.4-13.6 21.4l-13 20 2.8 7.2c1.6 3.9 3.4 7 3.9 6.9.5-.1 7.7-10.5 15.9-23.2 8.3-12.7 15.6-23.6 16.2-24.2.9-.9 3.6.6 11.5 6.1 8.8 6.3 25.4 18.7 28.2 21.1.6.5-8.9 13.9-9.9 13.9-.1 0-5.3-4.1-11.6-9-9.9-7.9-11.8-9-14.9-8.8-2.7.2-3.8 1-5.5 3.8-2.8 4.8-2.9 15.8-.1 18.9 2.5 2.8 4 2.7 6.8-.7 3.9-4.7 4.4-4.7 11.3.8l6.4 5.1-7 8.9-7 8.8 2.6 6.4c1.5 3.5 3 6.6 3.4 7.1.5.5 26.2-31.2 35.7-44.2 1-1.3 1.8-1 5.9 2.4 2.6 2.2 6.1 5.2 7.9 6.7l3.3 2.7 4.7-4.8 4.8-4.9-13.9-11.7c-90.9-77-201.1-124.8-317.8-137.9-31.5-3.5-76.2-4.6-106.9-2.5zm76.9 13.9c.3.5.3 5.7-.1 11.5l-.7 10.5H1009v-10.8c0-6 .3-11.2.7-11.5 1-1.1 19.1-.8 19.8.3zm158.5 50.5c4 2.1 9 8.4 9 11.4 0 2.5-14.8 5.3-21.5 4-9-1.7-13.4-8.9-8.2-13.6 4.4-4.2 14.4-5.1 20.7-1.8zm75.6 15.1l8.4 4.6-4.5 8.6c-2.5 4.8-4.9 9.3-5.4 10-.6 1-2.7.4-9.5-3-4.7-2.3-8.6-4.7-8.6-5.3 0-1.3 9.9-19.5 10.6-19.5.3 0 4.4 2.1 9 4.6zM760.3 200.4c-1.8.8-3.3 2-3.3 2.6 0 .6 2 3.2 4.3 5.7l4.4 4.6 4.7-1.8c3.7-1.4 5.4-1.6 8.1-.8 4.2 1.3 20.9 13.4 19.8 14.3-.4.4-5.5 2.4-11.3 4.5-5.8 2.1-17.8 6.9-26.8 10.7l-16.2 6.9-11.9-10.4c-12.5-11.1-16.8-13.4-22.8-12.2-3.7.7-11.3 4.9-11.3 6.3.1.4 2.5 2.4 5.6 4.4 5.4 3.7 5.5 3.7 7.4 1.8 2.6-2.6 6-3.3 9.2-2.1 2.4.9 17.7 12.1 16.5 12.1-.2 0-5.4-1.3-11.6-2.9-16.5-4.4-22.5-4.8-28.1-1.9-2.5 1.3-4.5 2.7-4.5 3.3 0 .5 2.1 2.9 4.6 5.3l4.7 4.2 5.8-3.1c5.6-3 6.3-3.1 14.9-2.6 14.6.8 14.6 1-3.2 10.2-8.7 4.5-20.5 11-26.2 14.4l-10.3 6.1-3.6-3.2c-4.2-3.6-17.5-10.1-24.5-11.8-9.1-2.3-20.9.1-22.4 4.7-.2.5 2.1 2.7 5.1 4.8l5.5 3.7 3.1-2.2c5.6-4 10.3-3.8 21.5 1 5.5 2.3 10.3 4.4 10.8 4.7.4.2-6.1 5-14.5 10.6-30.8 20.6-57.7 42.3-85.7 69.1-18.9 18.2-53 57.1-51.4 58.6.4.5 3.5 1.5 6.8 2.4l6 1.6 3.5-4.3c7.4-8.9 19.6-22.6 27.8-31.1 7.6-7.9 8.7-8.7 10.7-7.8 3.4 1.6 3.9 5.4 1.4 11.2-2.9 6.7-4.2 7.7-7.5 5.5-1.4-.9-3-1.3-3.4-.8-7.6 7.8-16.1 19.1-16.6 22-2.6 14 9.3 22.4 34.4 24 8.4.5 10.2.4 10.2-.8 0-.8.3-2.4.6-3.7.6-2.1.3-2.2-4.2-2.2-14.3 0-25.4-7-25.4-15.9 0-3.8 10.4-16.5 12.9-15.7.9.2 3.6 1.2 6.1 2.1 6 2.3 15.5 3 20.8 1.6 5.7-1.6 11.5-7.4 13.3-13.4.7-2.6 1.6-4.7 1.9-4.7.3 0 2.3 1.7 4.4 3.9l3.7 3.8 7.2-1.5c4-.8 7.4-1.7 7.6-1.8.5-.4-7.3-9.1-24.6-27.1l-15.2-15.9 7.9-6.7c4.3-3.7 8.5-6.9 9.2-7.1.8-.3 7.4 7.4 16.3 18.8l15 19.3 8-.5c4.4-.2 8.1-.6 8.3-.7.2-.2-7.8-10.7-17.8-23.5-10-12.7-18-23.4-17.6-23.7.3-.3 4.7-3.7 9.8-7.4l9.3-6.8 4.2 6.7c2.4 3.7 4.3 6.9 4.3 7.2 0 .3-1.3 1.4-3 2.3-3.5 2.1-4 5.5-1.2 8 5.2 4.7 21.4 6.5 25.2 2.7 1.1-1.1 2-2.4 2-2.9 0-.4-4.2-7.3-9.3-15.2-5.1-7.9-9.6-14.9-10-15.5-.4-.7 1.8-2.8 5.6-5.3 3.5-2.2 6.6-4.1 6.9-4.1.3 0 6.8 9.7 14.4 21.6l13.9 21.6 7.4-.6c4.1-.3 7.6-.8 7.8-1 .3-.2-6.8-11.5-15.6-25l-16-24.6 12.2-6.9c6.7-3.7 16.7-9.1 22.3-11.9l10-5 3.7 7.4 3.7 7.4-12.3 6.1c-14.4 7.2-15.7 8.2-15.7 12.4 0 5.6 9.3 12.5 17 12.5 5 0 5.9-1.7 3.5-7-.9-2.1-1.4-4.3-1-4.9.3-.6 3.7-2.7 7.4-4.5l6.7-3.4 5.2 10.4L762 312h7.5c4.1 0 7.5-.2 7.5-.5s-5.8-12.2-13-26.4l-12.9-25.9 10.7-4.7c12.9-5.7 35.6-14.5 37.4-14.5.7 0 2.4 3 3.7 6.7 1.3 3.8 2.6 7.3 2.8 8 .3.6-2.3.1-6.2-1.3-8.2-3-12.9-3-17.7-.1-14.5 8.7-11.9 25.2 5.2 33.1 9.8 4.6 16.7 3.2 23.4-4.5l3.6-4.2 1.3 3.4c.8 1.9 1.7 4.1 2 5 .3 1.1 3.1 2.1 8.4 3.2 4.3.8 7.9 1.4 7.9 1.4.1-.1-2-6.1-4.6-13.2l-4.8-13 2.2-3.9c2.8-5.2 7.7-8.8 11.3-8.4 5.3.6 6.5 9.3 3.2 22.7-.3 1.1 1.6 2 6.4 3.4 3.8 1 7.1 1.6 7.4 1.3.3-.3.8-3.7 1.1-7.5.9-12.6-2.8-21.2-11.4-27-9.4-6.2-15.8-5.9-22.9.9l-3.1 3-2.4-7c-1.3-3.8-2.2-7.1-2-7.3.5-.4 23.8-7.3 33.4-9.9l4.8-1.3-6.2-5.4-6.2-5.4-10.1 2.8c-5.6 1.6-13.9 4.1-18.4 5.6-6.1 2-8.3 2.4-8.3 1.5 0-1.6-7.5-9-14.2-14.1-10.6-8-21.7-11.2-28.5-8.1zm46.2 61.6c2.5.9 2.5 1.1 1.1 3.8-.8 1.5-3.5 4.7-6 7-7 6.5-11.9 6.8-14.1.8-1.2-3.4 1.7-9.4 5.5-11.3 3-1.5 9.9-1.7 13.5-.3zM606.9 369.2l7.4 7.7-.7 4.7c-.9 7.2-4.9 15-8.8 17.4-2.9 1.8-10.8 2.9-10.8 1.5 0-.3 1.2-2.8 2.6-5.5 3.8-7.3 4.3-12.5 1.3-15.6-1.2-1.3-4.1-2.9-6.3-3.5-2.3-.6-4.7-1.3-5.5-1.5-.9-.3 1-2.7 5.5-6.9 3.8-3.5 7.1-6.3 7.4-6.2.3.1 3.8 3.7 7.9 7.9z"/><path d="M1017.5 264.5c-5.8 2.1-8.5 5.6-8.5 11.1 0 8.3 5.2 16.4 13.2 20.5 6.2 3.2 20.5 2.3 24.6-1.6 1-.9.9-2.1-.8-6.1-1.2-2.7-2.3-5-2.5-5.2-.2-.2-2.9.8-6 2.3-7.6 3.6-15 3.8-17.7.5-2.6-3.2-2-7.8 1.4-10.3 2.2-1.6 4.1-2 9.3-1.9 3.6.1 6.5 0 6.5-.3 0-.2-1-2.5-2.2-5-1.5-3.1-2.8-4.5-4.2-4.5-1.2 0-3.7-.2-5.6-.5-1.9-.3-5.3.2-7.5 1zM978.2 290.3c-5.1 1.6-11.8 8.2-14.7 14.3-4.4 9.3-5.5 17.7-6 44.9-.6 31.2-.8 33.3-4.6 44.2-7.3 20.9-20.8 41.8-49.9 76.9-31 37.5-43.5 63.4-45.6 94.6-.5 8.3-.2 13.4 2.2 30l.7 4.7-11.5 5.4c-92.6 43.7-160.9 129-183.3 229.2-8.2 36.8-10.1 80.8-5 117.2.8 5.8 1.5 10.8 1.5 11 0 .2 21.9.3 48.8.3h48.7l-4.5-3.7c-19.9-16.3-30.6-36.5-31.7-59.8-.9-18.9 2.3-27.6 18.9-52.1 13.1-19.3 14.2-25 7.1-37.2-6.4-11.2-.6-18.7 16.6-21.8 19.5-3.4 43.2-.1 62 8.7 4.6 2.1 8.7 3.7 9 3.4.3-.3 0-2.6-.7-5-1.8-6.6-1.5-10.5 1-14.1 8.2-12 38.6-17.7 63.7-11.8 14.4 3.3 30.1 13.5 39.7 25.7 3 3.8 5.4 7.3 5.4 7.8 0 4.1 4.7-4.6 11.5-21.1 9-21.9 22.1-31.9 37.8-28.9 13.8 2.6 22.1 12.1 31.7 36.4 1.7 4.4 4.1 9.5 5.2 11.2l2 3.3 4.2-5.8c9.2-12.4 22.1-22 35.8-26.6 27.2-9.2 64.4-2.8 71 12 1.9 4.5 1.9 4.8.3 10.6-.9 3.3-1.4 6.2-1.1 6.6.3.3 2.7-.6 5.3-2 6.4-3.5 20.2-8.2 28.8-9.9 4.1-.8 13.1-1.4 21.5-1.4 16.9 0 26.5 2.3 31.3 7.2 4.4 4.6 4.4 8 .3 16.4-4.2 8.6-4.7 14.9-1.6 21.7 1.1 2.4 5.7 9.8 10.4 16.5 14.4 21.1 18 30.2 17.9 46.7-.1 15.5-4 28.7-12.4 41.6-4.9 7.5-15.5 19-21.4 23.2l-3 2.1 49.6.1h49.6l1.8-12.3c2.3-16.3 3.1-54.3 1.6-71.7-5.3-59.8-25.3-114.7-59.8-163.7-35.8-51-87.6-92.6-144.8-116.4-5.5-2.3-8.9-4.2-8.7-5 6.4-26.2 4.4-51.5-5.7-74.9-6.3-14.4-12-22.1-27-36.5-26.3-25.1-37.5-36.9-41.4-43.5-8-13.7-9.9-26.4-7.2-46.6 4.1-29.9-1-59-13-75.5-2-2.6-5.1-5.7-6.9-6.8-2.7-1.7-3.4-2.9-3.9-6.1-1.5-11.1-14.8-17.8-27.5-13.7zm11.8 20.4c.7 2.7.7 10.6-.1 26.7-.6 12.6-.9 31.5-.7 42l.4 19.1 4.1 12c2.2 6.6 8.4 21.5 13.6 33.1 5.2 11.6 11 25.5 12.8 31 3 9 3.3 11 3.4 22.4 0 11.7-.2 12.8-2.8 18.3-3.4 6.9-8 9.9-17.7 11.8-3.6.6-7.7 1.8-9.2 2.6-3.3 1.6-4.5 5.2-2.8 8.3 1.1 2.1 1.6 2.2 7.4 1.4 3.3-.4 10.4-.8 15.6-.8 8.2-.1 10.2.2 14.4 2.4 6.4 3.3 11.3 9.1 13.3 15.9 2 7.2.6 15.5-4.3 25.2-6.2 12.4-12.2 17.4-24.7 20.5-7.2 1.9-8.7 2.8-8.7 5.8 0 3.6 2 4.6 9.1 4.6 22.1 0 41.1 6.6 45.9 15.9 4.9 9.8.5 16.8-13.1 21-11.5 3.5-14.9 5.1-15.5 7.8-1.5 5.8 1.5 7.2 11 4.9 7.7-1.8 15.3-2.1 17.5-.7 2.2 1.4.5 5.6-4.1 10-5.5 5.4-18.6 11.8-27.8 13.7-17.2 3.5-52 3.5-72.5-.1-24.4-4.2-36.5-11.8-33.5-21l1.1-3.4 3.2 1.9c5.2 3.1 20.6 7.8 31.2 9.6 12.7 2.2 42.6 2.5 50.2.6 6.3-1.6 8.8-4.1 7.9-7.7-.9-3.6-3.6-4.3-15.7-3.7-25.7 1.1-54.6-5.5-79.9-18.4-20.4-10.5-28.3-17.5-35.6-31.8-5.2-10.1-7.5-20-8.1-35.1-.7-15.9 1.1-26.5 6.8-41 6.7-17.3 14.7-29.7 35.3-54.5 30.7-37.1 47-63.4 54.2-87.5 2.6-8.6 2.7-10.4 3.5-39.5.4-16.8 1.2-32.5 1.8-34.9 2.2-8.2 5.1-12.1 9.2-12.1 2.4 0 3 .6 3.9 3.7zm48.6 383.8c2.6 6.6-16.7 15-37.6 16.4-19.4 1.3-35.7-1.1-47.8-7-5.6-2.7-10.3-7.1-9-8.4.3-.3 2.9 0 5.9.5 19 3.6 58.1 3.2 76.9-.9 11-2.4 11-2.4 11.6-.6zm-32 26.7c1.2 1.3-2.3 6.1-5.8 7.9-8.8 4.5-23.8.4-23.8-6.5 0-2 .5-2.1 14.5-2 8 .1 14.8.4 15.1.6zM1380.7 358c-1.4 1.1-3.1 3.7-3.8 5.8-1.5 4.4-1.4 17.2 0 22.1 1.3 4.1.4 5.1-4.9 5.1-6.9 0-7.8-.7-7.2-5.5.4-3.7.1-4.5-1.8-5.5-4.8-2.5-12 2-12 7.5 0 1.8 1.1 4.9 2.5 6.9l2.5 3.6-2 9.6c-1.1 5.3-2 9.8-2 9.9 0 .4 6 2.5 7 2.5.4 0 1-4.1 1.3-9.1.3-5 .7-9.3 1-9.5.2-.2 3.2.1 6.8.7 8.1 1.3 19 .3 25.2-2.3 5.8-2.5 11.4-8.8 13-14.5l1.1-4.3 2.9 2.8c1.6 1.5 3.8 4 4.9 5.6l2.1 2.8-18.2 18.2c-17.2 17.2-18.2 18.4-17.5 21.2l.7 2.9-2.4-2.2c-2.4-2.2-9.8-5.3-12.5-5.3-1 0-1.4 1.6-1.4 6.4v6.3l4.7.6c4.8.5 7.3 2.5 7.3 5.9 0 4-9.7 5.6-15.7 2.5-6.7-3.5-17.9-21.6-19-30.8-.5-4.7-.7-4.9-3.6-4.9h-3l.6 7.7c.6 9.8 3.5 17.5 10.1 27.2 6.5 9.6 11.6 13.3 19.1 13.9 10 .8 14.7-3.1 16.7-13.7.6-3.3 1.4-5.9 1.8-5.8.4.1 10.1-8.8 21.5-19.8l20.8-20 4.4 4.9c2.4 2.7 4.6 4.6 4.9 4.3 1.1-1.1 3.5-13.3 3-15.2-.3-1.1-5.5-7.2-11.5-13.5l-10.9-11.5-4.5 4.3-4.4 4.3-.6-5c-1-8.5-5.8-15.7-12-18-4.7-1.8-12.1-1.4-15 .9zm13.9 11.5c2.6 4 1.1 9.2-4.2 14.2-2.4 2.4-5.1 4.3-5.8 4.3-3 0-3.2-13.3-.3-17.1 3.3-4.3 8-4.9 10.3-1.4zm-10.9 70.7c-.3.8-.6.5-.6-.6-.1-1.1.2-1.7.5-1.3.3.3.4 1.2.1 1.9z"/><path d="M1215.1 491.1c-33.1 62.2-60.1 113.2-59.9 113.3 3.4 2.5 10.4 5.4 11 4.8 1.1-1.1 119.8-224.1 119.8-225 0-.7-9.2-6.2-10.3-6.2-.2 0-27.5 50.9-60.6 113.1zM681.8 392.8c-2.7 1.5-4.8 3.1-4.8 3.5 0 .8 126.6 218.6 127.9 219.9.3.4 2.9-.8 5.8-2.6l5.2-3.3-64.2-110.1C716.4 439.6 687.3 390 687 390c-.3 0-2.6 1.3-5.2 2.8zM1425 429v9h17v-18h-17v9zM1407 447v9h17v-18h-17v9zM1170.6 452.1c-2.7 6.4-51.5 132.4-51.8 133.7-.4 1.8 10.5 6.5 11.3 4.9 1.2-2.1 52.9-135.7 52.9-136.6 0-.8-1.9-1.7-9.8-4.8-.7-.3-1.8.9-2.6 2.8zM782.7 461.2c-2.6 1.1-4.6 2.6-4.4 3.2 1.1 2.7 59.1 133.1 59.4 133.5.8 1 11.5-5 11-6.2-5.1-13.1-59.3-132.7-60.1-132.7-.6.1-3.3 1-5.9 2.2zM1314.4 557.6c-46.1 50.4-85 93-86.3 94.7l-2.5 3 4.4 3.9c2.4 2.1 4.6 3.7 5 3.6 1-.4 171.4-186.8 171.9-188 .3-1-6.7-8.8-7.9-8.8-.4 0-38.4 41.2-84.6 91.6zM572.7 477.4l-4.8 4.2 87.7 92.7 87.8 92.8 4.5-4.6 4.6-4.5-6.6-6.7c-4.7-4.9-156.6-165.5-167.3-177-.8-.9-2.3-.1-5.9 3.1zM1236.6 568.2l-42.9 60.2 3.4 2.8c1.9 1.6 4.1 3.4 5.1 3.9 1.3.7 8.6-8.9 43.9-58.4 23.2-32.5 42.6-59.7 43.1-60.3.6-.8-.8-2.4-4.2-4.8-2.7-2-5.1-3.6-5.3-3.6-.1 0-19.5 27.1-43.1 60.2zM692.3 516.3c-2.4 1.7-4.2 3.8-4 4.5.1.7 19.6 27.6 43.2 59.7l43 58.3 4.5-3.3c2.4-1.8 4.6-3.7 4.7-4.2.3-.9-85.2-117.6-86.5-118-.4-.2-2.6 1.2-4.9 3zM481 591.7c-1.7 2.6-2.9 5.1-2.7 5.6.3 1 212.6 136.7 213.8 136.7.8 0 5.9-8.4 5.9-9.8 0-.7-200.4-129.4-212.7-136.6-.8-.5-2.3 1-4.3 4.1zM1390.5 655.6c-58.8 37.6-106.9 68.8-106.8 69.3.1.5 1.6 3 3.1 5.5l2.9 4.6 104.4-66.6c57.4-36.6 106.1-67.6 108.1-69l3.8-2.4-3.1-5c-1.7-2.8-3.6-5-4.2-4.9-.7 0-49.3 30.8-108.2 68.5zM609.2 597.5c-1.9 2.4-3.1 4.9-2.7 5.4.3.6 24.8 21.4 54.3 46.2 29.5 24.9 54.4 45.8 55.3 46.6 1.4 1.2 2.1.8 5.3-3.4 2-2.6 3.5-5 3.4-5.4-.4-.9-111-93.9-111.7-93.9-.3 0-2.1 2.1-3.9 4.5zM1313 640c-30.5 25.7-55.5 47.2-55.7 47.6-.1.5 1.5 2.9 3.6 5.3l3.8 4.4 56.7-47.7 56.6-47.7-3.6-4.5c-2-2.4-4.1-4.4-4.8-4.3-.6 0-26.1 21.1-56.6 46.9zM1372 732.2c-36.6 17.2-66.7 31.3-66.9 31.5-.5.4 4.3 11.3 5 11.3.6 0 133.1-61.8 133.6-62.4.1-.1-1-2.7-2.5-5.8l-2.7-5.7-66.5 31.1zM542.1 707.2c-1.2 2.8-1.8 5.5-1.3 6 .7.7 110.5 52.4 126 59.4l5.3 2.3 2.4-5.6c1.4-3.1 2.4-5.7 2.2-5.9-.6-.6-130.9-61.4-131.6-61.4-.5 0-1.8 2.3-3 5.2zM416.6 735.1c-.9 3.4-1.5 6.2-1.4 6.3.5.4 240.3 75.9 241.2 76 1.1.1 4.7-11.2 3.7-11.8-.3-.2-54.2-17.2-119.6-37.9-65.5-20.7-119.8-37.9-120.6-38.2-1.2-.4-1.9.8-3.3 5.6zM1442.7 767.5c-66.4 21-121 38.4-121.2 38.7-.4.3 2.3 10.8 3 11.6.2.2 212.7-66.6 236.6-74.4l7.7-2.5-1.7-5.6c-.9-3.1-2.1-5.8-2.6-5.9-.6-.1-55.4 17-121.8 38.1zM984.5 767.9c-5.1 2.3-8.6 6.9-13.6 17.9-5.4 11.9-6.1 12.9-15.3 27.2-11.1 17.1-21.1 29.4-38.1 47-20.8 21.4-26.2 30.8-27.2 46.5-.6 10.2 1.5 20.7 6.2 30.2 9.1 18.4 33.5 32.4 66.5 38 13.6 2.3 41.3 2.3 55.5-.1 32.5-5.3 57.4-19.6 66.9-38.4 3.1-6 5.6-18.2 5.6-26.8 0-17.5-6.2-28.4-29.7-52.2-28.8-28.9-38.9-42.7-48.8-66.7-6.1-14.8-10.6-21.1-16.8-23.4-4-1.5-6.6-1.3-11.2.8z"/><path d="M869.5 781.6c-1.1.2-4.5.9-7.5 1.5s-7.2 2-9.4 3.1c-3.3 1.7-3.7 2.3-3.2 4.6.4 1.5.9 5.9 1.3 9.8 1 13.2-4 24.5-22.2 49.9-18.8 26.1-22.2 34.5-21.2 51.5.7 10.7 3.5 21 7.8 28.7 12.7 22.3 43.1 37.4 86.5 42.7 17.7 2.2 27.4 2.9 27.4 1.9 0-.4-2.6-1.9-5.6-3.2-14.9-6.5-28.5-18.7-34.6-31.1-8.8-17.9-9.9-36.8-3.3-53.2 4.3-10.5 11.3-19.5 32.6-41.4C935 829 939 824.3 939 822.1c0-5.3-6-15.2-13.9-23.1-8-7.9-15.7-12.6-25.1-15.5-5.3-1.6-26.2-2.9-30.5-1.9zM1087.8 782c-10.8 1.8-20.9 6.9-30.2 15-5.4 4.8-13.1 16.1-14.6 21.4-1.2 4.4-1.1 4.7 1.6 8.3 1.6 2.1 11 12.1 20.9 22.3 19.2 19.7 23.4 24.8 28.4 34.7 4.2 8.5 6.1 16.2 6.1 25.4 0 26.6-13.3 48.1-37.8 60.8-5.7 2.9-10.1 5.5-9.9 5.8.8.7 24.8-1.6 37.6-3.8 30.7-5.1 51.5-14.2 66.2-28.8 12.2-12.2 17.9-26.3 17.9-44.6 0-15.5-3.6-24-19.2-45.3-17.9-24.4-23.3-35-24.4-47.7-.3-3.7 0-8 .9-11.2 1.2-4.7 1.2-5.4-.2-6.7-5.7-5.1-28.5-8.1-43.3-5.6z"/><path d="M767.1 802c-2.4.5-4.6 1.2-4.9 1.5-.3.3.5 2.8 1.9 5.7 2 4.2 2.4 6.7 2.4 14.2 0 8.2-.3 9.8-3.3 16-1.8 3.8-6.3 11.3-10.1 16.5-14.2 19.9-16.5 26.3-15.9 43 .4 9.9.9 12.7 3.5 19.3 14.2 36 60.8 59.5 128.2 64.8 14.1 1 35.8 1.4 34.9.5-.3-.3-5.6-1.4-11.9-2.4-60-9.9-90.6-35.6-93.5-78.5-1.2-17.6 3.5-30.2 19.3-52.1 13.5-18.7 19.3-27.7 19.3-29.6 0-4.2-13.6-12-28.7-16.5-7.2-2.1-11.3-2.7-22.8-3-7.7-.2-16 .1-18.4.6zM1180.8 802.5c-13.7 2.6-27.9 8.9-33.8 15l-3.3 3.4 2.8 4.8c1.5 2.6 6.7 10.2 11.5 16.8 12.6 17.4 18 26 21.4 34.5 3 7.2 3.1 8.1 3 22 0 12.9-.3 15.4-2.7 22.5-7.5 22.6-24.2 38.7-51.3 49.4-11.4 4.5-26.8 8.5-40.2 10.5-5.1.7-9.6 1.7-10 2.1-1.1 1.2 35.9-.3 49.7-2 67-8.4 110-36.8 116.2-76.8 2.7-17.4-.6-26.8-18.6-53.1-12-17.4-14.3-29.2-8.2-42.8l2.5-5.6-2.1-.7c-4.9-1.4-29.2-1.4-36.9 0zM506.6 826.9c-2 9.8-2 9.8 1.1 10.4 15.1 2.9 140.5 24.9 140.7 24.6.2-.2.7-2.9 1-6.1.6-4.9.5-5.7-1.1-6.2-1-.3-31.3-5.7-67.3-12.1-36-6.4-67.4-12-69.7-12.4-4-.8-4.2-.7-4.7 1.8zM1406.5 836.5c-37.9 6.8-70.4 12.6-72.1 13l-3.1.5 1 6c.7 4 1.4 6 2.4 6 1.8 0 142.6-25.1 143.4-25.5.7-.5-1.2-12.5-2-12.4-.3 0-31.6 5.6-69.6 12.4zM392 889.9v6l5.3.5c5.9.6 234.5 10.6 242.3 10.6h5.1l.6-5.7c.3-3.2.5-5.9.3-6-.3-.4-243-11.3-249.8-11.3H392v5.9zM1457.5 889.6c-63.8 2.9-117.3 5.3-118.8 5.3-2.8.1-2.8.1-2.5 6.3l.3 6.2 5-.2c91.2-3.8 239.6-10.4 244.3-10.8l6.2-.6v-3.6c0-8.1-.2-8.2-9.9-8.1-4.7.1-60.8 2.5-124.6 5.5zM573.5 946.5c-39 3.5-71.1 6.3-71.2 6.4-.2.1.9 11.5 1.3 11.9.3.4 143.8-11.9 144.3-12.3.9-.9-1.2-12.5-2.2-12.4-.7.1-33.1 3-72.2 6.4zM1334.6 942.2c-.3 1.3-.6 4.2-.6 6.5 0 3.4.4 4.3 1.7 4.3.9 0 33.6 2.7 72.6 6.1 39 3.3 71.1 5.8 71.4 5.5.4-.3.8-3.1 1.1-6.1.4-5 .3-5.4-1.9-5.9-1.3-.3-32.5-3-69.4-6.1-36.8-3-68.6-5.8-70.6-6.1-3.2-.5-3.7-.2-4.3 1.8zM432 973.8c0 .5 2.1 6.4 4.6 13.3 2.5 6.8 4.8 13.2 5.1 14.2.5 1.7 8.2 1.8 182.2 1.4 199.4-.4 187.4 0 200.9-6.3l5.7-2.6-19.5-6.7c-10.7-3.7-23.1-8.4-27.4-10.4l-7.9-3.7H603.9c-94.6 0-171.9.4-171.9.8zM1196.5 977.1c-4.4 2.1-16.2 6.6-26.2 10-10.1 3.3-18.3 6.4-18.3 6.9 0 1.2 9.4 4.9 16.9 6.8 5.9 1.4 25.2 1.6 187.2 1.9l180.7.4 4.5-12.4c2.5-6.8 4.9-13.5 5.2-15l.7-2.7-171.3.1-171.4.1-8 3.9zM972.5 987c-14.9 1.3-26.5 5-32.3 10.4-9 8.1-8.1 24.8 1.7 34.6 3.7 3.7 6.8 5.5 15.6 8.9 6.1 2.4 13.4 6 16.3 7.9 5.3 3.4 11.4 10.5 14.6 16.9.9 1.8 2 3.3 2.4 3.3.4 0 1.6-1.9 2.7-4.2 2.8-5.9 11.4-14.9 17.3-18.1 2.8-1.5 8-3.8 11.7-5.2 3.7-1.4 8.3-3.4 10.3-4.4 10.4-5.4 17.1-19.5 14.2-29.9-2.4-9.2-11.8-15.8-26.6-18.6-9.9-1.8-35.7-2.7-47.9-1.6zM849.8 996.3c-14.4 11.8-26.8 17.1-44.7 19.1l-10.5 1.2 6 2.6c12.9 5.7 26.9 9.2 43.7 10.9 11.9 1.2 13.7.8 13.7-3.2 0-6.2 4-10.8 15.9-18.4 7.1-4.5 17.1-13 17.1-14.5 0-.4-4.6-1-10.2-1.4-5.7-.3-13.5-.9-17.3-1.2l-7-.6-6.7 5.5z"/><path d="M921 992c-13.9 1.6-20.1 4.4-27.5 12-2.7 2.8-9.6 8.3-15.3 12.2-11.3 7.8-12.9 10.1-9.5 14.6 5 6.7 20 11.3 38.9 12 18.4.6 29.5-2.7 25.1-7.6-3.2-3.6-6.9-13.4-7.5-19.8-.6-7.7 1-14 4.9-19.4 1.6-2.2 2.9-4.2 2.9-4.5 0-.6-3.5-.5-12 .5zM1050.7 995.2c3.4 5 4.1 6.7 5.3 12.8 1.5 7.8-1.8 20-7.5 27.7-1.6 2.1-1.5 2.2 2.7 4.4 3.6 1.9 6.3 2.3 16.9 2.7 21.8.7 41.3-5.2 46-14 1.6-3-.9-5.9-10.8-12.4-4.8-3.2-12-8.8-15.9-12.5-9.5-9-13.6-10.6-32.8-12.4l-6.8-.7 2.9 4.4zM1116.5 991.5c-.5.2-6.8.7-13.9 1l-12.8.7 4.8 5c2.7 2.8 8.7 7.6 13.5 10.8 10.7 7.3 14.9 11.9 14.9 16.4 0 5.5 1.4 5.9 14.2 4.6 6.2-.6 16-2.2 21.6-3.5 9.8-2.4 24.7-7.7 26.5-9.4.4-.4-2.8-1.1-7.1-1.5-17.7-1.4-31.5-7-45.1-18.1-6.8-5.5-8.6-6.5-11.8-6.4-2.1 0-4.2.2-4.8.4zM453 1027.6c0 .3 3.1 7 6.9 15l7 14.4h220.3c142.6 0 219.8-.4 218.8-1-.8-.5-2.7-1-4.1-1-4.1 0-24.7-5.4-32-8.4-5.7-2.3-8-2.7-21.4-3-20.7-.5-40.2-5.1-55.9-13.1l-7-3.5H619.3c-91.5 0-166.3.3-166.3.6zM1189.5 1030.1c-13.3 7.5-41.8 14.1-60.5 13.9-9.1-.1-11.3.2-16.7 2.4-7.3 3-23 7.2-30.5 8.2-2.9.4-6 1-6.8 1.5-.8.5 97.2.9 217.7.9H1512l6.4-12.8c3.5-7 6.6-13.7 7-15l.7-2.2-165.8.1-165.8.1-5 2.9zM481.4 1082.7c.4 1 4.4 7.7 8.9 15l8.2 13.2 293.3.1H1085l-.6-5.3c-.5-4.2-.2-6.4 1.4-9.9 2.2-5 5.3-7.6 14.4-11.8l6.3-2.9-312.9-.1c-297.5 0-312.8.1-312.2 1.7zM1256.1 1081.4c.2.2 7.2 1.6 15.4 3.1 30.5 5.3 59.3 13.6 77.4 22.1l9.4 4.4H1480.6l7.9-12.8c4.4-7 8.6-13.7 9.3-15l1.4-2.2h-121.8c-66.9 0-121.5.2-121.3.4z"/><path d="M1138.7 1087.1c-30.2 2.6-46.9 9.5-44.2 18 1.1 3.3 7.5 9.8 11.8 12 7 3.6 18.7 6 33.4 6.8 10.6.6 14.8 1.2 16.7 2.5 3.3 2.1 3.3 3.1-.2 6.6-4.6 4.5-9.5 4.7-33.1 1.4-32.8-4.6-60.9-3.6-73.1 2.6-2 1-5.5 3.9-7.7 6.3-7.6 8.3-6.9 16.1 2.5 25.9 10.5 11 22.8 17.3 44.7 22.8 20.3 5.2 33.7 6.4 68 6.5 32.3 0 43.3-.8 73.3-5.1 58.5-8.3 110.5-25.5 128.7-42.6 10.2-9.5 10.9-15.6 2.5-23.8-17-16.6-72.3-31.9-139-38.5-18.8-1.9-69.4-2.7-84.3-1.4zM516.9 1136.7c.5 1 5.7 7.8 11.5 15L539 1165h98.8c64 0 99.9-.4 102.2-1 1.9-.6 8.5-1.9 14.5-3 45.4-8.3 104-7.7 150 1.6 11.8 2.4 12.7 2.4 68.2 2.4h56.2l-1.1-3.1c-1.9-5.4-.4-15.4 3.1-21 1.7-2.8 3.1-5.2 3.1-5.5 0-.2-116.6-.4-259-.4-246.4 0-259 .1-258.1 1.7zM1378 1138.8c0 6-4.4 13.5-11.8 20.2l-6.7 6h40.5l40.5-.1 11-14c6.1-7.7 11.2-14.4 11.3-14.9.2-.6-15.4-1-42.2-1H1378v3.8zM789 1167c-47 4.4-80.1 14.7-93.4 29.1-8.4 9-9.6 15.7-4.5 25.8 12.5 24.9 64.5 40.3 136.9 40.3 35.4.1 52.9-2.6 59.9-9.1 6.4-5.9 2.8-11.4-13.4-20.6-13.1-7.5-17.6-12.4-11.9-13.3 1.1-.2 10.5 2.2 20.9 5.2 28.2 8.2 34.8 9.6 45.1 9.6 12.1 0 20.4-2.5 26.8-8.1 18.5-16.3 5.8-36-30.3-47.3-11.1-3.5-34.3-8.1-51.1-10.2-15.7-1.9-69.9-2.8-85-1.4zM567.2 1196c3.4 3.9 10.2 10.6 15 15l8.6 8h87v-6.8c-.1-5.4.5-8.2 2.7-13 1.5-3.4 3.4-6.7 4.1-7.3.8-.6 1.4-1.5 1.4-2s-27.3-.9-62.6-.9h-62.5l6.3 7z"/><path d="M967.4 1191.2c.9 1.3 2.9 4.8 4.3 7.8 2.2 4.5 2.7 6.8 2.6 12.7l-.1 7.3H1389l14.8-14.8 14.7-14.7-58-.3-57.9-.2-15.6 3.9c-70.2 17.8-148.1 21.6-198.5 9.6-11.7-2.7-24.7-7.3-31.2-11l-4.6-2.5h-86.9l1.6 2.2zM901.4 1246.5c.1 5.6-.3 6.9-2.9 10.7-4.9 6.9-14.5 11.1-34 14.6-3.1.6 82.2 1 226 1.1l231 .1 12.2-8.9c6.7-4.9 15.5-11.6 19.5-14.8l7.3-5.8-227-.5c-171.5-.4-227.6-.8-229.6-1.7l-2.7-1.2.2 6.4zM619.4 1243.9c.7 1.1 20.9 16.5 31.4 23.9l7.2 5.2h69.7c38.3 0 69.4-.2 69.2-.4-.2-.2-5.3-.9-11.4-1.5-36.6-3.8-67.9-12.7-84.4-23.9l-6.1-4.2h-38c-22.6 0-37.9.4-37.6.9zM700 1299c1.4 1.1 14.2 7.9 28.5 15l26 13h470.2l27-13.5c14.8-7.4 27.6-14.1 28.3-15 1.1-1.3-28.9-1.5-290.6-1.5-291.4 0-291.9 0-289.4 2zM826 1351.9c0 .9 35.5 9.9 52 13.1 83.1 16.1 172.6 13.6 254.5-7.2 8.8-2.2 17-4.3 18.3-4.5 1.2-.3 2.2-.9 2.2-1.4 0-.5-69.6-.9-163.5-.9-90.4 0-163.5.4-163.5.9z"/><path d="M1738.2 1233.1c-17.1 2.2-30.1 8.7-42.7 21.4-17 17-26.5 38.8-31.2 71.7l-1.8 12-7.5 3.8c-36.2 18-91.6 34.2-180.5 52.5-51.7 10.7-60.5 13.4-65 20.3-3.5 5.5-4.5 10.7-4.6 24.4-.1 10.2.4 14.9 3 27.2 1.7 8.3 2.8 15.2 2.3 15.5-.4.3-5.3 4-10.9 8.2-43.3 32.6-113.6 60.2-197.3 77.4-151.3 31.1-332.3 26.7-472.4-11.6-50.6-13.8-97.5-33.3-130.2-54.1l-12.1-7.7 2.8-10.8c4.6-17.4 6.2-28.9 5.8-42.1-.4-10.2-.7-12.4-3-16.7-4.8-9.5-11-11.6-68.5-23.5-88.7-18.4-142.4-34-178.5-52.1l-7.6-3.8-.7-6.3c-2.1-19.5-8.4-41.7-15.7-55.8-14.4-27.7-36.3-41.9-66.9-43.6-19.2-1.1-33.1 2.3-39.4 9.7-5.4 6.4-5.9 9.4-5.1 34.8.9 27.5.4 29.7-9.4 50.1-13.1 27.4-17.1 40.1-17.1 55.1 0 15.3 4.3 25.2 16.1 36.6 6.7 6.5 23.8 20.6 27.1 22.4 1.4.7 1.7 1.6 1.2 3.2-.3 1.2-6 13-12.6 26.1-13.5 27-19.6 41.3-23 53.6-2.1 7.8-2.3 10.5-2.3 35 0 21.8.3 27.5 1.7 32.3 2.1 7.3 4.1 10.5 7.4 11.3 4.4 1.1 7.1-1.4 13-12 15.9-28.4 34.9-48.6 45.8-48.6 5.5 0 10.5 7.4 18.2 26.8 4.7 12 9.8 15.3 14.3 9.6 1.7-2.2 2.1-4.1 2.1-11 0-18 4.4-41.5 12.6-67.4l4.6-14.6 15.7 5.4c14.8 5 24.9 8 75.3 22.1 31.8 9 52.8 16.1 73.1 25l4.8 2.1-6 7.1c-7.3 8.7-9.6 14.6-8.9 23.3.9 11.3 5.1 16.4 23.3 28.6 49 32.7 108.4 59.6 178 80.5 145.6 43.7 317.4 56.3 485.4 35.4 144.6-17.9 266.9-60.3 354.5-123 24.7-17.6 26.2-19.4 25.4-30.4-.6-7-3.7-13.8-9.7-21l-4.1-5 3.4-1.7c16-8.2 50.3-19.8 97.1-32.8 34.3-9.6 48.7-13.9 63.1-19 4.7-1.6 9-3 9.4-3 1.1 0 7.9 20.9 11.4 35.1 4 16.1 5.7 27.2 6.3 41.7.7 14.7 2 18.2 6.9 18.2 3.5 0 6.4-3.6 9.8-12.2 10.3-25.8 14.1-29.5 25.1-24.4 10.6 4.8 26.5 23.8 38.6 45.9 5.9 10.9 8.7 13.5 13.2 12.3 3.4-.8 5.4-3.9 7.5-11.3 1.4-4.8 1.7-10.5 1.7-32.3 0-24.5-.2-27.2-2.3-35-3.4-12.4-9.5-26.6-23-53.5-6.6-13.2-12.3-24.9-12.6-26-.4-1.6 1.2-3.3 7.7-8.2 28.2-21.4 35.5-31.8 36.5-51.5.7-16.1-2.7-27.8-16.5-56.8-10.3-21.5-10.7-23.4-9.8-51.1.7-24.9.3-28.3-4.7-34.3-7.1-8.6-25.8-12.4-47.6-9.5zm15 13.9c5.6 6.9-4.9 25.8-25.3 45.7-12.8 12.5-27.9 24-46.3 35.2l-6.8 4.2.7-5.3c1.2-8.6 6-26.7 9.4-35.3 3.9-9.7 10.5-20.5 16.8-27.5 11-12.3 28.6-20.3 43.2-19.7 5.3.3 6.7.7 8.3 2.7zM269 1252.6c11.2 2.6 20.6 7.9 29 16.4 9.2 9.3 15.1 19.4 20.1 34.4 4.9 14.4 9 34.6 7.1 34.6-1.8 0-24.6-15.1-34.8-23.1-32.3-25.3-52.4-56.5-40.4-62.6 3.4-1.7 11.1-1.6 19 .3zm1471.5 128.9c7.2 16.8 13.1 30.9 13.3 31.4.4 1.2-5.8 3.5-6.8 2.5-.4-.5-3.4-7-6.5-14.4s-6-13.8-6.4-14.2c-.8-.9-30.4 11.6-30.8 12.9-.2.5 2.4 7.1 5.7 14.8 3.3 7.6 6 14.3 6 15 0 .9-6.1 3.9-6.5 3.2-.2-.2-25.5-59.6-26.2-61.4-.4-.9 4.3-4.3 6-4.3.2 0 2.8 5.6 5.7 12.5 2.9 6.9 5.8 12.5 6.4 12.5.9 0 29.5-11.8 30.4-12.6.2-.1-2.1-6-5.1-13.1l-5.4-12.8 2.6-1.2c1.4-.7 3.1-1.2 3.6-1.2.6-.1 6.9 13.7 14 30.4zm-1468.8 3.3c-.5 15.5-.8 28.5-.4 28.8.3.3 10.1-7.8 21.8-18 11.7-10.2 21.5-18.4 21.7-18.2.2.2-3.6 15.7-8.4 34.4l-8.8 34-3.3-1.6c-1.8-.9-3.3-2.1-3.3-2.7 0-.6 2.7-10.8 6-22.5 3.2-11.8 5.8-21.6 5.6-21.7-.2-.2-9 7.1-19.6 16.2-10.7 9-19.4 16.4-19.5 16.2-.1-.1.2-11.4.6-25.2.4-13.7.6-25.1.4-25.3-.2-.2-6.5 8.2-14 18.7l-13.7 19-3.4-1.7c-1.9-.9-3.3-1.9-3.2-2.2.5-1.2 42.2-57 42.4-56.7.1.1-.3 12.9-.9 28.5zm1400.2-6.8c1 3 1 3.1-4.6 5.5-3 1.4-5.8 2.5-6.2 2.5-3.6.1-3 2.3 7.8 28.6 6 14.8 11.2 27.6 11.6 28.5.4 1.2-.3 2-2.5 2.9-1.8.8-3.5.9-3.9.4-.5-.5-5.7-12.8-11.6-27.4-6-14.6-11.2-26.9-11.6-27.4-.5-.6-3.5.1-7.4 1.7-3.6 1.5-6.9 2.7-7.4 2.7-.9 0-3.4-5-2.8-5.7.5-.5 36-15.2 36.9-15.2.3-.1 1.1 1.3 1.7 2.9zm-1306.8 55.3c1.2 20.7 2 37.9 1.7 38.2-1 1.1-6.7-2-7.2-3.9-.3-1.2-.6-5.5-.6-9.7v-7.6l-15.4-6-15.4-6-6.9 6.8-6.8 6.8-3.8-1.7-3.8-1.7 27.7-26.8c15.2-14.7 27.8-26.6 27.9-26.5.2.2 1.3 17.3 2.6 38.1zm1274.6-1.4c11.7 11.2 21 20.7 20.8 21.1-.3.5-1.8 1.3-3.5 1.8-2.7 1-3.3.7-10-5.5l-7.1-6.6-14.8 5.9-14.9 5.8-.6 6c-.3 3.2-.6 7.6-.6 9.6 0 3.4-.4 3.9-3.7 5.3-2.1.8-3.9 1.4-3.9 1.3-.1 0 .7-15 1.7-33.1 1-18.2 1.8-35.7 1.9-38.9v-5.9l6.8 6.4c3.7 3.5 16.3 15.6 27.9 26.8zm-1229.5-17.3c10 3.6 18.4 6.7 18.6 6.8.1.2-.3 1.7-.9 3.4l-1.1 3.1-6.9-2.6c-3.8-1.4-7.4-2.3-8.1-2-.7.3-5.8 13.1-11.3 28.6-5.5 15.4-10.4 28.1-11 28-.5 0-2.2-.5-3.7-1.2l-2.6-1.2 9.7-27c5.4-14.9 10.1-27.9 10.5-29 .5-1.8-.3-2.3-6.5-4.4-3.8-1.4-7.2-2.8-7.5-3.2-.4-.8 1.2-5.9 2-5.9.2 0 8.7 3 18.8 6.6zm1163.2 35c9.7 16 17.6 29.6 17.6 30.2 0 1.4-6.2 3.5-6.9 2.3-.3-.5-5.5-9.5-11.6-20-6-10.5-11.3-19-11.6-19.1-.3 0-1.2 9.3-1.8 20.7-.7 11.5-1.6 22.7-1.9 25.1l-.7 4.3-17.4-17.6c-9.6-9.6-17.6-17.4-17.8-17.1-.3.3 5.9 37.2 7.3 43.1.4 1.6-.2 2.3-3.1 3.4-2 .7-3.8 1.1-3.9.9-.5-.5-11.4-69.3-11.1-69.6.1-.1 9.2 9.1 20.1 20.6 19.8 20.8 19.9 20.9 20.5 17.8.4-1.7 1.3-14.9 2-29.4.7-14.4 1.6-25.9 1.9-25.5.4.4 8.7 13.9 18.4 29.9zm-1106.9 19.7c2.1 20.8 3.5 38 3.3 38.2-.2.2-2-.1-4-.7l-3.5-1.1-.7-9.1c-.4-5-1-9.4-1.4-9.8-.4-.4-7.4-3-15.7-5.9l-15-5.1-6.2 6.8c-6.2 6.9-6.9 7.3-12 5.3-2.3-.8-1.1-2.3 24.3-28.9 14.8-15.4 26.9-27.8 27-27.7.1.1 1.9 17.2 3.9 38zm966.1-19.8c.4 2.5 0 4.6-1.5 7.8-2.6 5.4-9.1 13.1-10.1 12-1-1-4-16.4-4-20.2 0-2.7.3-2.9 5.8-3.8 7-1.1 8.9-.3 9.8 4.2zm344.6 30.8c15.5 31.8 20 43.4 21.7 56.1 1.2 8.7 1.4 27.8.4 40.4l-.6 8.3-2-3.3c-14.6-24.2-29.9-41.8-41.1-47.3-14.6-7.2-26.1-2.9-34.3 12.7l-2.8 5.3-.3-3.5c-1-12.1-7.7-40.3-14.1-59.1l-2.9-8.6 5.7-2.3c9.5-3.9 34.1-16.5 44.6-22.9 5.5-3.3 10.2-6 10.5-6 .3 0 7.1 13.6 15.2 30.2zm-1199.3-25.7l6.1.7-.6 3.6c-.8 4.1-6.1 23.2-6.7 23.7-.8.8-12.4-9.9-14.4-13.4-2.7-4.4-2.8-5.4-.7-9.7 2.4-5.2 5.2-6 16.3-4.9zm-329.3 8c9.5 5.9 33.6 18.3 44.5 22.8l6.6 2.8-4.4 13.6c-6.4 19.8-10.7 38.4-12.6 55.2-.2 2.2-.6 1.8-3-2.7-3.6-7-8.1-12-13.1-14.5-5.6-2.8-14.4-2.1-21.7 1.8-10.8 5.8-29.7 27.7-40 46.3l-2.4 4.4-.6-6.4c-1.1-10.6-1-34.3.2-42.5.6-4.2 2.4-11.8 4-16.8 2.8-8.6 31.7-69.5 33-69.6.4 0 4.7 2.5 9.5 5.6zm1191.9 99.2c8.6 16.7 15.5 30.5 15.3 30.7-.2.1-1.7 1-3.4 1.8l-3.2 1.6-15.7-30.5c-8.6-16.8-15.5-30.7-15.3-30.8.6-.6 6.3-3.4 6.4-3.3.1.1 7.2 13.9 15.9 30.5zm-33 0l-2.7 22 6 13.7 6.1 13.7-3.6 1.4c-1.9.9-3.6 1.4-3.7 1.2-.1-.2-2.9-6.3-6.2-13.7l-5.9-13.5-17-12.3c-9.3-6.8-17.4-12.8-17.9-13.3s.6-1.5 2.9-2.4c4.5-1.9 3.1-2.6 20.3 10.1 6.3 4.7 11.6 8.3 11.8 8.1.2-.2 1.3-8 2.4-17.3 1.2-9.3 2.2-17 2.3-17 .1 0 1.8-.8 3.7-1.7 1.9-.8 3.6-1.4 3.8-1.3.2.2-.9 10.2-2.3 22.3zm-827.1 18.7c.8 20.9 1.4 38.1 1.2 38.2-.2.2-1.9-.4-3.9-1.2l-3.7-1.5v-6.9c0-12.9.8-11.9-16.2-19.1l-14.9-6.3-3.2 2.9c-1.8 1.6-5 4.5-7.2 6.5l-4 3.7-3.8-1.7-3.9-1.6 28.9-26.1c15.8-14.4 28.9-25.9 29-25.5.2.3.9 17.7 1.7 38.6zm47 4.7c1.1 13.4 2.2 26.5 2.5 29.2l.6 4.9 20-21.5c11-11.8 20.1-21.4 20.2-21.3.4.2-9.4 69.5-9.9 70-.3.3-1.9 0-3.6-.6-2.3-.8-3.2-1.7-3.2-3.2.1-1.2 1.6-11.5 3.4-23 1.8-11.4 3-20.7 2.6-20.7-.4 0-8.4 8.1-17.8 18-14.6 15.2-17.2 17.6-17.6 15.7-.3-1.2-1.2-11.2-2.1-22.2-1.8-22.4-2.3-26.1-3.5-24.8-.5.4-5.8 9.4-11.7 19.9l-10.8 19.1-3.2-1.1c-1.8-.6-3.3-1.6-3.4-2.1 0-1.2 34.3-60.4 35.1-60.5.3 0 1.4 10.9 2.4 24.2zm753.2 38.6c1.4 2.1 1.4 2.3-1.1 3.2-4.1 1.6-4.6 1.4-11.6-5.6l-6.6-6.6-15.4 5.5-15.4 5.4-.8 6.4c-1.5 12.1-1.9 13.1-5.8 14.4-3.5 1.2-3.5 1.2-3.2-1.4.2-1.4 1.6-16.8 3.3-34.1 1.6-17.3 3.2-33.5 3.6-36l.5-4.5 25.5 25.6c14 14 26.2 26.5 27 27.7zm-677.1-36.2c12.3 3.4 20.5 9.5 22 16.4 2.5 11.4-7 23.9-18.2 24-1.8 0-3.3.4-3.3.9 0 .6 2.7 8 6 16.7 3.3 8.6 5.8 15.9 5.6 16.1-.2.2-2.2 0-4.3-.6l-3.9-1.1-6-17c-4.3-12.5-6.4-17.2-7.7-17.6-2.5-.8-3.1 0-5.1 7.6-.9 3.6-2.6 9.5-3.7 13.3-1.9 6.5-2.1 6.7-4.7 6.1-1.5-.4-3.1-1-3.6-1.4-.4-.5 2.9-14 7.4-30.2 4.6-16.1 8.7-30.8 9.2-32.6.7-2.4 1.4-3.2 2.6-2.8.9.3 4.4 1.2 7.7 2.2zm593.4 30.9c8.5 17.3 15.2 31.7 14.9 32-.3.3-2.1.8-3.9 1.1l-3.4.5-9.4-20.3c-10.4-22.2-9.9-21.3-10.6-20.7-.3.4-8.5 47.6-8.5 49.4 0 .4-7.2-8.2-16.1-19-8.9-10.8-16.3-19.4-16.6-19.2-.2.3.4 10.5 1.3 22.6 1.1 14 1.5 22.4.9 23-.6.5-2.2 1.3-3.7 1.6-2.5.6-2.7.5-3.2-3.7-.8-6-4.6-66.1-4.3-66.5.3-.2 34.1 41.3 35.9 44.1.4.6.9.8 1.2.6.2-.3 2.3-13.2 4.7-28.8 2.4-15.5 4.6-28.2 4.9-28.2.3 0 7.4 14.2 15.9 31.5zM750.8 1600c.6 0 1.2.8 1.2 1.7 0 .9-3.5 16-7.7 33.6l-7.7 31.8-3.6-.6c-1.9-.4-3.6-.8-3.8-.9-.1-.2 3.1-14.2 7.3-31.2 4.1-17 7.7-32 8-33.3.5-1.8 1.1-2.2 2.8-1.7 1.2.3 2.8.6 3.5.6zm33.5 7.6l18.9 3.8-.6 3c-.4 1.6-.8 3.1-1 3.4-.3.2-3.9-.4-8.1-1.3-4.2-1-7.8-1.5-8-1.3-.3.2-3.2 13.6-6.5 29.8-3.3 16.2-6.2 29.5-6.4 29.8-.2.2-2 0-4-.3-3.2-.6-3.5-1-3-3.4.3-1.4 3.1-15 6.3-30.1l5.7-27.5-8.1-2c-7-1.7-8-2.3-7.7-4 .6-3.7 1.2-4.7 2.5-4.3.6.3 9.7 2.2 20 4.4zm424.2 33.1c20.2 27.9 22.1 30.9 20.1 31.5-5.1 1.5-6.1.9-11.5-6.7-2.8-4.1-5.7-7.5-6.4-7.5-2 0-30.5 5.8-31.5 6.3-.4.4-1.7 4.2-2.7 8.6-1 4.4-2.1 8.4-2.4 8.9-.3.6-2.3 1.3-4.5 1.7-3.4.7-3.8.6-3.2-1.1.3-1.1 4.2-16.3 8.6-33.9 4.5-17.6 8.6-33.7 9.1-35.9.6-2.1 1.3-3.5 1.6-3.2.3.3 10.6 14.4 22.8 31.3zm-359 11.6c5.9 20.2 10.6 37 10.3 37.2-.2.2-2 .2-4-.1-3.6-.6-3.6-.7-6.2-9.6-1.4-5-2.7-9.2-2.8-9.3-.2-.2-7.6-1.4-16.5-2.7l-16.3-2.5-5.1 7.9c-4.7 7.1-5.4 7.8-8.5 7.8-1.8 0-3.5-.4-3.9-1-.4-.7 41.6-65.3 42.1-64.7.1.1 5 16.7 10.9 37zM927 1678c.4 0 1.4-10.2 2.4-22.8 2.2-29.5 1.9-28.3 5.9-27.5 1.8.3 3.4.8 3.6 1 .5.4-4.8 68.6-5.3 69.1-.2.1-11-12.8-24.1-28.8-13.2-15.9-24-28.8-24.1-28.7-.3.3-4.4 46.9-4.4 49.9 0 1.4-.8 1.8-4.1 1.8h-4.2l.6-5.8c.4-3.1 1.6-17.6 2.7-32.2 1.1-14.6 2.3-28 2.6-29.7.5-3.2 1.1-2.5 24.1 25.2 13 15.7 24 28.5 24.3 28.5zm204.2-54c18.7 5.8 28 28.4 19.2 46.7-5.1 10.7-16.3 17.3-33.3 19.8-5.7.9-10.9 1.4-11.5 1.2-.9-.3-10-66.7-9.2-67.5.7-.7 13-2 20.2-2.1 5.7-.1 10.2.5 14.6 1.9zm-47.3 39c1.1 17.9 1.8 32.6 1.8 32.7-.1.1-5.2-4.4-11.3-10-6.1-5.6-18.6-17.2-27.9-25.7l-16.8-15.5.6 13.3c.4 7.2 1 19 1.3 26.1l.7 12.8-3.6.5c-3.6.4-3.6.3-4.1-3.7-.8-6.3-3.9-64.2-3.5-65.3.2-.5 12.7 10.3 27.7 24 15 13.8 27.5 24.8 27.7 24.6.2-.2-.3-10.9-1-23.8-.8-12.9-1.5-24.3-1.5-25.2 0-1.2 1-1.8 3.8-2 3.3-.3 3.7 0 4 2.2.1 1.4 1.1 17.1 2.1 35zm-87.9-1.3c8.4 18.6 15.5 34.4 15.8 35.1.3 1-.6 1.2-3.8 1l-4.3-.3-3.7-8.5-3.7-8.5-16.9-.3-16.9-.2-3.9 8.5-3.9 8.5h-8.5l16.6-34.5c9.2-19 16.9-34.5 17.3-34.5.3 0 7.5 15.2 15.9 33.7z"/><path d="M344.5 1422l-10.9 10.9 3.4 1.5c10.4 4.2 20.2 7.7 20.7 7.3.7-.8-.8-30.7-1.6-30.7-.3 0-5.6 4.9-11.6 11zM1610.8 1430.7c-.3 8.7-.4 15.9-.3 16 .2.3 22.7-8.6 23.4-9.2.5-.6-20.9-22.5-22-22.5-.4 0-.9 7.1-1.1 15.7zM446.5 1458c-5.5 6-10.1 11.3-10.3 11.8-.2.8 22.9 9.4 23.5 8.8.5-.4-2-30.1-2.6-30.8-.3-.4-5.1 4.2-10.6 10.2zM560 1567.9c-10 9.5-11.2 11-9.5 11.7 1.1.4 6.5 2.7 12 5l10 4.3.3-15.1c.1-8.4-.1-15.5-.5-15.9-.5-.5-6 4.1-12.3 10zM1332.1 1602.1c-.6 8.3-1 15.3-.8 15.5.7.7 23.7-7.7 23.7-8.6 0-1-20-22-20.9-22-.4 0-1.3 6.8-2 15.1zM696.7 1604.2c-1.5 5.7-3 11.3-3.3 12.5-.5 1.8 0 2.3 3.3 3.2 2.1.6 6.1 1.1 9 1.1 6.4 0 10.7-3.2 12.3-9.1 1.3-4.8.6-7.5-2.8-11.1-2.3-2.5-11.5-6.8-14.5-6.8-.7 0-2.4 4.2-4 10.2zM1184.6 1640.1c-2 8.3-3.4 15.4-3.1 15.7.9.9 24.5-3.9 24.5-5 0-.7-14.7-22.4-17.1-25.1-.4-.5-2.3 6-4.3 14.4zM827.1 1645.1c-4.6 7.1-8.1 13.2-7.8 13.5.5.6 24.9 4.5 25.3 4.1.3-.4-8.1-29.5-8.6-30.1-.3-.3-4.3 5.4-8.9 12.5zM1106.8 1629.7c-1 .2-1.8.8-1.8 1.1 0 .4 1.4 12.6 3.2 27.1l3.3 26.3 5.3-.6c16.8-2 27.7-11.2 28.9-24.4 1.2-13.3-6.1-25.2-17.6-28.6-5-1.5-17.2-2-21.3-.9zM973.2 1657.6c-3.4 7.4-6.2 14-6.2 14.5s5.6.9 12.9.9h12.9l-6.1-14.5c-3.4-7.9-6.5-14.5-6.8-14.5-.3 0-3.3 6.1-6.7 13.6zM1202.3 1738c-1.3.5-2.3 1.2-2.3 1.5 0 .3 2.2 5.3 4.9 11l4.9 10.4 3.8-1.1c5.3-1.4 12.3-.5 18 2.3 4 2 6.8 5 17.2 18.6l12.3 16.3H1183c-43 0-78 .4-77.8.8.2.4 3 5.2 6.3 10.5l6 9.7h24.5v41h-33.9l-.3-21.8c-.4-25.3-.4-25.6-10.6-36.4-8.5-9-15.1-12.3-24.7-12.3-5.8 0-7.8.5-11.6 2.7-5.7 3.3-9.7 9.1-11.3 16l-1.1 5.3-4.3-7.8-4.3-7.7H895l3.2 5.7c1.8 3.2 4.4 7.8 5.8 10.3l2.6 4.5 45.2.3 45.2.2v7.5c0 6.6-.2 7.5-1.8 7.5-2.8 0-10.3 5.2-14.8 10.3l-4.1 4.6-5.6-5.3c-3.2-2.9-8.3-6.5-11.4-8.1-15.5-7.6-34.8 1-40.3 17.9-2 6.1-.9 18 2.3 24.7 5.4 11.2 17.1 24.8 31.5 36.3l7.3 5.9 3.3-3.9 3.4-3.9-9.3-9.7c-14-14.5-19.3-26.6-16.5-37.6 2.2-8.7 8.2-14.2 15.6-14.2 4.3 0 12 4.1 12.9 6.9.3 1.1-1.1 5.6-3.5 11.1-2.3 5.1-3.7 9.6-3.3 10 .6.6 8.7 4.3 18.9 8.6.7.3 1.6-1.5 2.3-4.3 1.8-7 8.4-20.1 12.6-25.1 6.8-7.9 16.3-10.4 23.2-6.2 9.7 5.9 1.3 24.2-18.1 39.4l-7.5 5.9 9.1 8.6c5 4.7 9.4 8.7 9.8 8.9 1.3.5 11.9-12.8 16.6-20.8 6.8-11.6 8.7-18.4 8.2-29.4-.4-6.2-1.2-10.6-2.6-13.8-2.4-5.4-8.3-12.3-12.4-14.4-2.7-1.4-2.8-1.7-2.8-9.4v-8h29.9l2.2 5c3.8 8.8 15.6 18.2 27.2 21.5l5.7 1.6v12.9h-5.5c-4.6 0-6 .4-8 2.5-4.9 4.8-2.1 12.2 8.9 23 6.9 6.8 15.9 12.5 19.9 12.5 1 0 3.2-1.3 4.8-2.9 2.6-2.6 2.9-3.6 2.9-9v-6.1h34v29.9l9.9 5.5c5.4 3.1 10.6 5.8 11.5 6.2 1.5.6 1.6-3.6 1.6-51V1818h89v16h-18.3c-21.6 0-26.1 1-33.1 7.1-6.7 5.9-8.6 10.2-8.6 19.2 0 4 .7 10 1.5 13.2 3.2 12.5 13.4 30.3 24.3 42.5 5.3 5.9 5.6 5.9 11.7 1.4 1.8-1.4 1.8-1.6-2.2-5.7-8.7-9-14.7-21.6-15.9-33.6-.8-7.1.7-12 4.9-16.8 4.8-5.4 7.9-6.3 22.7-6.3h13v51.5l10.6 7c5.9 3.8 11.1 7.1 11.5 7.3.5.2.9-22.5.9-51.2V1818h11c7.3 0 11-.4 11-1.1 0-.6-2.4-5.3-5.2-10.5l-5.3-9.4H1266v-3.4c0-4.5-4.1-12.2-14.1-26.2-14.5-20.2-27.2-29.6-40.8-30.1-3.6-.2-7.6.2-8.8.7zm-118.6 68c1.5 3 1.8 30 .4 30-2 0-7.5-5.6-9.2-9.5-2.1-4.5-2.5-14.4-.8-17.8 3.2-6.1 7.3-7.3 9.6-2.7zM218.9 1793.6c-5.5 1.7-13.3 8.2-15.9 13.5-2.8 5.3-2.7 13.9.2 19.8 2.9 6 11.9 15 19.2 19.1 7.2 4.1 8.1 3.2-15.4 14.9-9.6 4.7-17.5 9.1-17.5 9.6 0 .6 3.5 4.1 7.9 7.8 5.9 5.1 8.4 6.7 10 6.3 3.8-1 24.9-12.6 35-19.3l9.9-6.6 8.8 4.4c6.9 3.3 8.6 4.6 7.7 5.5-.7.6-13.6 8.7-28.7 18l-27.4 16.8 4.9 4.4c2.7 2.4 6.5 5.6 8.4 7.2l3.6 2.8 26.2-17.9c14.5-9.8 26.5-17.9 26.8-17.9.2 0 .4 6 .4 13.4v13.4l11 6.1c6.1 3.4 11.5 6.1 12 6.1.6 0 1-19.4 1-51.5V1818h131v15.8l-17.2.4c-15.1.3-17.9.6-21.9 2.5-6 2.7-12.1 8.8-15.6 15.5-2.4 4.7-2.8 6.4-2.8 14.4 0 8.5.2 9.5 3.9 17 3.2 6.4 5.9 9.8 14 18 13.8 13.7 25.9 19.6 34.6 16.6 3.9-1.4 3.9-.5-.4 8.5-6.1 12.6-14.9 20.4-23.3 20.6-3.8 0-5-.4-7-2.7-5.1-6-2-13.6 7.5-17.8 2.3-1.1 4-2.3 3.7-2.7-.2-.5-4.7-3.4-10-6.6-11.1-6.7-12.7-6.7-19.2.1-4.1 4.2-4.5 4.4-8.5 3.8-2.4-.3-5.8-1-7.6-1.6l-3.4-1 3.6-2.4c7.7-5.3 11-18.7 6.7-27.3-4.4-8.5-12.7-12.9-22.4-11.7-19.3 2.4-27.2 23.9-14.2 38.4 7.3 8.1 20.3 13.8 33.8 14.9 5.7.4 7.7.9 7.3 1.9-.8 2.1 1.3 8.2 4.2 11.5 10 11.9 33.5 17.7 46.9 11.5 6.3-3 13.1-9.5 17.2-16.7l3-5.3 4.6 9.7c2.6 5.3 5.1 9.7 5.6 9.7 1.9 0 14-6 13.6-6.7-18.5-30.7-17.9-29.5-16-30.9 1-.7 2.1-1.4 2.5-1.4.4 0 1.9-1.7 3.3-3.7 8.3-12.2-5.2-34.3-19.3-31.7-11.3 2-15.9 10-11.7 20.1.8 1.9 1.5 3.7 1.5 3.9 0 .2-2.3 1-5.1 1.8-9.8 2.9-20.1-1.7-26.4-11.9-2.5-4.1-3.1-6.1-3.4-12.7-.3-6.9 0-8.5 2.4-13.3 1.4-3 4.3-6.7 6.2-8.3l3.6-2.7 24.4-.3 24.3-.3V1818h35V1906.7l10.8 7.2c5.9 3.9 11.1 7.1 11.5 7.1.4 0 .7-23.2.7-51.5V1818h100V1848.3l-5.4-5.1c-11.8-11.2-23.1-15.8-36.9-15-9.8.5-15.7 2.9-22.2 8.9-6.7 6.2-8.9 10.9-8.9 19.4-.1 6.1.4 8 3.3 14 4.6 9.4 16.3 21 25.7 25.6 6.3 3.1 7.6 3.4 16.4 3.4 8.1 0 10.3-.4 15-2.6 3.1-1.4 7.3-4.1 9.3-5.9l3.7-3.2v18.2l10.5 7c5.8 3.9 11.2 7.3 12 7.7 1.3.4 1.5-6.1 1.5-51.1V1818h37V1906.7l10.8 7.2c5.9 3.9 11.1 7.1 11.5 7.1.4 0 .7-23.2.7-51.5V1818h84v31h-53l-3.2 2.9c-3 2.7-3.3 3.4-3.2 8.4.3 12 13 28.7 22 28.7 4.6 0 6.4-2.9 6.4-10.5 0-3.4.5-6.6 1.2-7.3.8-.8 5.7-1.2 15.5-1.2H787l.2 19.7.3 19.7 10.4 5.8c5.7 3.2 10.8 5.8 11.2 5.8.5 0 .9-23 .9-51.5V1818h11c6.1 0 11-.3 11-.7 0-.4-2.5-5.1-5.6-10.5l-5.5-9.8h-555l1.2 2.2c.7 1.3 3.6 6 6.5 10.5 3.8 5.9 5.9 8.3 7.4 8.3 1.9 0 2 .6 2 21.9v21.9l-11.4-5.1-11.4-5 2.3-3.6c8.4-12.8 4.8-29.8-9.3-43.9-11-11-22-14.4-34.3-10.6zm25.8 20.1c6.5 4.2 4.5 20.2-3.3 27.5-2.8 2.6-3.1 2.7-5.9 1.2-4.4-2.3-7.2-5.2-9.5-9.9-2.4-4.9-2.6-9.5-.6-13.4 1.9-3.6 3.7-5 8.3-6.6 4.1-1.5 7.5-1.1 11 1.2zm361.8 36.9c2.9 1.4 7.1 4.4 9.5 6.7l4.3 4.2-5.7 5.1c-12.7 11.6-31 17.8-41.7 14.3-4.5-1.5-9.7-6.5-10.4-10-1-4.3 2.6-11.2 7.7-15 12.2-9 25.3-10.9 36.3-5.3zM363.3 1893c7.2 8-.5 19.6-11.1 16.8-3.6-1-7.2-5.7-7.2-9.6 0-3.7 2.9-8.3 6.3-9.8 4.4-1.9 8.7-1 12 2.6zM1363 1797.5c0 .2 2.5 4.9 5.6 10.5l5.7 10H1459v16h-68l-2 4c-1.9 3.8-2 4.1-.3 4.7 20.1 7.2 30.8 17 32.9 30.2.9 5.5-.9 9.4-5.7 12.6-5.6 3.6-9.4 4.3-10.8 1.7-1.6-3.1-7.4-6.2-11.4-6.2-6.9 0-12.7 8-11.2 15.3 1.6 7.5 9.8 14 20.3 15.9l5.9 1.1 7.3 16.4c4 8.9 7.5 16.3 7.7 16.3.9 0 11.3-6.1 11.3-6.6 0-.3-4.3-6.7-9.5-14.1l-9.4-13.6 4.9-1.7c6.6-2.2 12.7-6.6 15.9-11.4 2.3-3.5 2.6-5 2.6-12s-.5-8.9-3-14.1c-1.7-3.2-5.4-8.5-8.4-11.7l-5.3-5.8h36.2v53.9l9.9 5.5c5.4 3.1 10.6 5.8 11.5 6.2 1.5.6 1.6-3.6 1.6-51V1818h37v88.5l10.6 7c5.9 3.8 11.1 7.1 11.5 7.3.5.2.9-22.5.9-51.2V1818h84v31h-26.1c-15.9 0-26.8.4-28 1-2.7 1.5-4.9 6.3-4.9 10.7 0 7.8 9.8 23.1 17.1 26.9 7 3.6 10.9.7 10.9-8.2.1-9.3.3-9.4 16.9-9.4h14.1v38.8l10.9 6.1c6 3.4 11.2 6.1 11.5 6.1.3 0 .6-23.2.6-51.5V1818h39v41h-4.8c-8.6 0-10.7 5.9-5.2 14.2 6 9 23.3 23.8 28 23.8.5 0 1.9-.9 3-2 1.6-1.6 2-3.3 2-9v-7h37V1906.7l10.8 7.2c5.9 3.9 11.1 7.1 11.5 7.1.4 0 .7-23.2.7-51.5V1818h11c6.1 0 11-.3 11-.6s-2.5-5.1-5.6-10.5l-5.6-9.9h-209.4c-115.2 0-209.4.2-209.4.5zm385 41v20.5h-37v-41h37v20.5zM787 1925.9c-4.5 1-10 3.8-10.6 5.6-.4 1 7 14.5 7.9 14.5.1 0 2.4-1.1 5.1-2.5 2.7-1.4 5.8-2.5 6.8-2.5 5.5 0 16.5 8.8 34.2 27.1l13.5 14.1 4-3.3 4-3.2-1.9-2.6c-2-2.8-24.2-24.8-35.7-35.3-11.7-10.8-18.6-13.8-27.3-11.9zM1748 1925.9c-4.5 1-10 3.8-10.7 5.7-.4 1 7.1 14.4 8.1 14.4 0 0 2.3-1.1 5-2.5s5.9-2.5 7.1-2.5c4.5 0 15.2 8.5 31.2 24.7l16.3 16.4 3.9-3.3 3.9-3.2-4-4.8c-5.6-6.7-36.8-36.5-42.5-40.5-6.8-4.8-11-5.8-18.3-4.4z"/></svg>